<svg id="visual" viewBox="0 0 900 600" width="900" height="600" xmlns="http://www.w3.org/2000/svg" xmlns:xlink="http://www.w3.org/1999/xlink" version="1.1"><g stroke-width="1" stroke-linejoin="bevel"><path d="M449 300L450 341.9L494 300Z" fill="#000000" stroke="#000000"></path><path d="M450 341.9L494 342.9L494 300Z" fill="#1e1e1e" stroke="#1e1e1e"></path><path d="M494 300L449 256.1L449 300Z" fill="#161616" stroke="#161616"></path><path d="M540 300L495 256.1L494 300Z" fill="#0f0f0f" stroke="#0f0f0f"></path><path d="M494 300L495 256.1L449 256.1Z" fill="#1e1e1e" stroke="#1e1e1e"></path><path d="M405 342.9L449 385.7L450 341.9Z" fill="#050505" stroke="#050505"></path><path d="M450 341.9L494 385.7L494 342.9Z" fill="#0f0f0f" stroke="#0f0f0f"></path><path d="M449 385.7L494 385.7L450 341.9Z" fill="#131313" stroke="#131313"></path><path d="M494 342.9L539 341.9L494 300Z" fill="#242424" stroke="#242424"></path><path d="M449 256.1L405 299L449 300Z" fill="#212121" stroke="#212121"></path><path d="M449 300L405 342.9L450 341.9Z" fill="#161616" stroke="#161616"></path><path d="M405 299L405 342.9L449 300Z" fill="#191919" stroke="#191919"></path><path d="M540 384.7L539 341.9L494 342.9Z" fill="#131313" stroke="#131313"></path><path d="M539 341.9L540 300L494 300Z" fill="#212121" stroke="#212121"></path><path d="M449 256.1L404 257.1L405 299Z" fill="#191919" stroke="#191919"></path><path d="M360 342.9L404 384.7L405 342.9Z" fill="#212121" stroke="#212121"></path><path d="M360 342.9L405 342.9L405 299Z" fill="#212121" stroke="#212121"></path><path d="M405 342.9L404 384.7L449 385.7Z" fill="#1e1e1e" stroke="#1e1e1e"></path><path d="M540 300L540 257.1L495 256.1Z" fill="#1c1c1c" stroke="#1c1c1c"></path><path d="M494 385.7L540 384.7L494 342.9Z" fill="#161616" stroke="#161616"></path><path d="M585 341.9L585 299L540 300Z" fill="#191919" stroke="#191919"></path><path d="M494 213.3L449 214.3L449 256.1Z" fill="#0b0b0b" stroke="#0b0b0b"></path><path d="M449 256.1L405 213.3L404 257.1Z" fill="#1c1c1c" stroke="#1c1c1c"></path><path d="M494 213.3L449 256.1L495 256.1Z" fill="#0b0b0b" stroke="#0b0b0b"></path><path d="M404 428.6L450 427.6L449 385.7Z" fill="#212121" stroke="#212121"></path><path d="M449 385.7L450 427.6L494 385.7Z" fill="#1c1c1c" stroke="#1c1c1c"></path><path d="M494 385.7L539 428.6L540 384.7Z" fill="#000000" stroke="#000000"></path><path d="M540 214.3L494 213.3L495 256.1Z" fill="#212121" stroke="#212121"></path><path d="M450 427.6L495 428.6L494 385.7Z" fill="#1e1e1e" stroke="#1e1e1e"></path><path d="M359 300L360 342.9L405 299Z" fill="#131313" stroke="#131313"></path><path d="M404 257.1L359 300L405 299Z" fill="#161616" stroke="#161616"></path><path d="M585 341.9L540 300L539 341.9Z" fill="#050505" stroke="#050505"></path><path d="M540 300L585 299L540 257.1Z" fill="#0f0f0f" stroke="#0f0f0f"></path><path d="M540 257.1L540 214.3L495 256.1Z" fill="#242424" stroke="#242424"></path><path d="M584 385.7L585 341.9L540 384.7Z" fill="#212121" stroke="#212121"></path><path d="M540 384.7L585 341.9L539 341.9Z" fill="#191919" stroke="#191919"></path><path d="M449 214.3L405 213.3L449 256.1Z" fill="#191919" stroke="#191919"></path><path d="M404 257.1L359 256.1L359 300Z" fill="#191919" stroke="#191919"></path><path d="M405 170.4L405 213.3L449 214.3Z" fill="#212121" stroke="#212121"></path><path d="M584 214.3L540 214.3L540 257.1Z" fill="#1c1c1c" stroke="#1c1c1c"></path><path d="M359 384.7L404 428.6L404 384.7Z" fill="#191919" stroke="#191919"></path><path d="M404 384.7L404 428.6L449 385.7Z" fill="#212121" stroke="#212121"></path><path d="M450 427.6L495 470.4L495 428.6Z" fill="#161616" stroke="#161616"></path><path d="M495 428.6L539 428.6L494 385.7Z" fill="#131313" stroke="#131313"></path><path d="M359 213.3L359 256.1L404 257.1Z" fill="#0b0b0b" stroke="#0b0b0b"></path><path d="M315 341.9L359 384.7L360 342.9Z" fill="#1c1c1c" stroke="#1c1c1c"></path><path d="M360 342.9L359 384.7L404 384.7Z" fill="#1e1e1e" stroke="#1e1e1e"></path><path d="M539 428.6L584 385.7L540 384.7Z" fill="#050505" stroke="#050505"></path><path d="M585 299L585 256.1L540 257.1Z" fill="#000000" stroke="#000000"></path><path d="M539 170.4L494 171.4L494 213.3Z" fill="#191919" stroke="#191919"></path><path d="M494 213.3L450 170.4L449 214.3Z" fill="#131313" stroke="#131313"></path><path d="M539 170.4L494 213.3L540 214.3Z" fill="#191919" stroke="#191919"></path><path d="M494 171.4L450 170.4L494 213.3Z" fill="#0b0b0b" stroke="#0b0b0b"></path><path d="M405 213.3L359 213.3L404 257.1Z" fill="#161616" stroke="#161616"></path><path d="M404 428.6L449 470.4L450 427.6Z" fill="#191919" stroke="#191919"></path><path d="M495 428.6L495 470.4L539 428.6Z" fill="#1e1e1e" stroke="#1e1e1e"></path><path d="M449 470.4L495 470.4L450 427.6Z" fill="#131313" stroke="#131313"></path><path d="M585 256.1L584 214.3L540 257.1Z" fill="#050505" stroke="#050505"></path><path d="M359 170.4L359 213.3L405 213.3Z" fill="#050505" stroke="#050505"></path><path d="M359 384.7L359 428.6L404 428.6Z" fill="#1c1c1c" stroke="#1c1c1c"></path><path d="M404 428.6L405 471.4L449 470.4Z" fill="#131313" stroke="#131313"></path><path d="M585 470.4L585 427.6L539 428.6Z" fill="#1e1e1e" stroke="#1e1e1e"></path><path d="M539 428.6L585 427.6L584 385.7Z" fill="#1c1c1c" stroke="#1c1c1c"></path><path d="M630 342.9L629 299L585 341.9Z" fill="#131313" stroke="#131313"></path><path d="M314 300L315 341.9L359 300Z" fill="#161616" stroke="#161616"></path><path d="M359 300L315 341.9L360 342.9Z" fill="#131313" stroke="#131313"></path><path d="M359 384.7L315 384.7L359 428.6Z" fill="#0f0f0f" stroke="#0f0f0f"></path><path d="M314 300L359 300L314 257.1Z" fill="#191919" stroke="#191919"></path><path d="M314 257.1L359 300L359 256.1Z" fill="#1c1c1c" stroke="#1c1c1c"></path><path d="M585 341.9L629 299L585 299Z" fill="#161616" stroke="#161616"></path><path d="M585 299L629 299L585 256.1Z" fill="#050505" stroke="#050505"></path><path d="M585 256.1L629 213.3L584 214.3Z" fill="#191919" stroke="#191919"></path><path d="M630 342.9L585 341.9L630 385.7Z" fill="#191919" stroke="#191919"></path><path d="M630 385.7L585 341.9L584 385.7Z" fill="#242424" stroke="#242424"></path><path d="M450 170.4L405 170.4L449 214.3Z" fill="#161616" stroke="#161616"></path><path d="M585 171.4L539 170.4L540 214.3Z" fill="#161616" stroke="#161616"></path><path d="M494 127.6L450 128.6L450 170.4Z" fill="#000000" stroke="#000000"></path><path d="M495 470.4L539 470.4L539 428.6Z" fill="#0b0b0b" stroke="#0b0b0b"></path><path d="M360 471.4L405 471.4L404 428.6Z" fill="#191919" stroke="#191919"></path><path d="M449 470.4L495 514.3L495 470.4Z" fill="#0f0f0f" stroke="#0f0f0f"></path><path d="M495 470.4L495 514.3L539 470.4Z" fill="#050505" stroke="#050505"></path><path d="M270 385.7L315 384.7L315 341.9Z" fill="#212121" stroke="#212121"></path><path d="M315 341.9L315 384.7L359 384.7Z" fill="#191919" stroke="#191919"></path><path d="M314 213.3L314 257.1L359 256.1Z" fill="#212121" stroke="#212121"></path><path d="M675 299L630 257.1L629 299Z" fill="#161616" stroke="#161616"></path><path d="M629 299L630 257.1L585 256.1Z" fill="#0b0b0b" stroke="#0b0b0b"></path><path d="M584 214.3L585 171.4L540 214.3Z" fill="#131313" stroke="#131313"></path><path d="M629 428.6L630 385.7L585 427.6Z" fill="#0b0b0b" stroke="#0b0b0b"></path><path d="M585 427.6L630 385.7L584 385.7Z" fill="#212121" stroke="#212121"></path><path d="M629 213.3L585 171.4L584 214.3Z" fill="#0b0b0b" stroke="#0b0b0b"></path><path d="M405 170.4L359 170.4L405 213.3Z" fill="#000000" stroke="#000000"></path><path d="M359 213.3L314 213.3L359 256.1Z" fill="#050505" stroke="#050505"></path><path d="M314 471.4L360 471.4L359 428.6Z" fill="#0f0f0f" stroke="#0f0f0f"></path><path d="M359 428.6L360 471.4L404 428.6Z" fill="#0f0f0f" stroke="#0f0f0f"></path><path d="M584 514.3L585 470.4L539 470.4Z" fill="#0f0f0f" stroke="#0f0f0f"></path><path d="M539 470.4L585 470.4L539 428.6Z" fill="#242424" stroke="#242424"></path><path d="M630 257.1L629 213.3L585 256.1Z" fill="#0f0f0f" stroke="#0f0f0f"></path><path d="M315 170.4L314 213.3L359 213.3Z" fill="#1c1c1c" stroke="#1c1c1c"></path><path d="M270 385.7L314 427.6L315 384.7Z" fill="#131313" stroke="#131313"></path><path d="M315 384.7L314 427.6L359 428.6Z" fill="#131313" stroke="#131313"></path><path d="M585 470.4L629 428.6L585 427.6Z" fill="#131313" stroke="#131313"></path><path d="M494 127.6L494 171.4L539 170.4Z" fill="#000000" stroke="#000000"></path><path d="M494 127.6L450 170.4L494 171.4Z" fill="#0f0f0f" stroke="#0f0f0f"></path><path d="M450 170.4L450 128.6L405 170.4Z" fill="#161616" stroke="#161616"></path><path d="M405 170.4L359 128.6L359 170.4Z" fill="#050505" stroke="#050505"></path><path d="M539 128.6L494 127.6L539 170.4Z" fill="#0f0f0f" stroke="#0f0f0f"></path><path d="M405 513.3L449 470.4L405 471.4Z" fill="#1e1e1e" stroke="#1e1e1e"></path><path d="M405 513.3L449 514.3L449 470.4Z" fill="#0b0b0b" stroke="#0b0b0b"></path><path d="M449 514.3L495 514.3L449 470.4Z" fill="#131313" stroke="#131313"></path><path d="M584 127.6L539 128.6L539 170.4Z" fill="#000000" stroke="#000000"></path><path d="M270 257.1L269 300L314 300Z" fill="#1c1c1c" stroke="#1c1c1c"></path><path d="M314 300L269 341.9L315 341.9Z" fill="#000000" stroke="#000000"></path><path d="M270 257.1L314 300L314 257.1Z" fill="#000000" stroke="#000000"></path><path d="M269 300L269 341.9L314 300Z" fill="#242424" stroke="#242424"></path><path d="M630 385.7L674 342.9L630 342.9Z" fill="#191919" stroke="#191919"></path><path d="M630 342.9L675 299L629 299Z" fill="#131313" stroke="#131313"></path><path d="M630 257.1L675 214.3L629 213.3Z" fill="#242424" stroke="#242424"></path><path d="M675 384.7L674 342.9L630 385.7Z" fill="#161616" stroke="#161616"></path><path d="M450 84.7L405 127.6L450 128.6Z" fill="#000000" stroke="#000000"></path><path d="M450 128.6L405 127.6L405 170.4Z" fill="#050505" stroke="#050505"></path><path d="M360 471.4L405 513.3L405 471.4Z" fill="#1e1e1e" stroke="#1e1e1e"></path><path d="M674 342.9L675 299L630 342.9Z" fill="#242424" stroke="#242424"></path><path d="M495 514.3L539 514.3L539 470.4Z" fill="#1c1c1c" stroke="#1c1c1c"></path><path d="M585 470.4L630 471.4L629 428.6Z" fill="#050505" stroke="#050505"></path><path d="M314 213.3L270 257.1L314 257.1Z" fill="#000000" stroke="#000000"></path><path d="M269 341.9L270 385.7L315 341.9Z" fill="#050505" stroke="#050505"></path><path d="M314 427.6L314 471.4L359 428.6Z" fill="#242424" stroke="#242424"></path><path d="M675 299L674 257.1L630 257.1Z" fill="#242424" stroke="#242424"></path><path d="M674 428.6L675 384.7L630 385.7Z" fill="#0b0b0b" stroke="#0b0b0b"></path><path d="M719 341.9L719 300L675 299Z" fill="#000000" stroke="#000000"></path><path d="M359 128.6L315 170.4L359 170.4Z" fill="#0b0b0b" stroke="#0b0b0b"></path><path d="M359 170.4L315 170.4L359 213.3Z" fill="#000000" stroke="#000000"></path><path d="M314 213.3L269 213.3L270 257.1Z" fill="#1c1c1c" stroke="#1c1c1c"></path><path d="M629 213.3L629 170.4L585 171.4Z" fill="#242424" stroke="#242424"></path><path d="M585 171.4L584 127.6L539 170.4Z" fill="#000000" stroke="#000000"></path><path d="M675 171.4L629 170.4L629 213.3Z" fill="#1c1c1c" stroke="#1c1c1c"></path><path d="M270 428.6L314 471.4L314 427.6Z" fill="#050505" stroke="#050505"></path><path d="M360 471.4L360 513.3L405 513.3Z" fill="#0f0f0f" stroke="#0f0f0f"></path><path d="M630 514.3L630 471.4L585 470.4Z" fill="#000000" stroke="#000000"></path><path d="M629 428.6L674 428.6L630 385.7Z" fill="#0b0b0b" stroke="#0b0b0b"></path><path d="M405 127.6L359 128.6L405 170.4Z" fill="#000000" stroke="#000000"></path><path d="M314 471.4L360 513.3L360 471.4Z" fill="#0f0f0f" stroke="#0f0f0f"></path><path d="M449 557.1L494 557.1L449 514.3Z" fill="#1c1c1c" stroke="#1c1c1c"></path><path d="M629 170.4L584 127.6L585 171.4Z" fill="#050505" stroke="#050505"></path><path d="M495 84.7L450 84.7L494 127.6Z" fill="#050505" stroke="#050505"></path><path d="M539 514.3L584 514.3L539 470.4Z" fill="#1e1e1e" stroke="#1e1e1e"></path><path d="M225 385.7L270 428.6L270 385.7Z" fill="#1c1c1c" stroke="#1c1c1c"></path><path d="M270 385.7L270 428.6L314 427.6Z" fill="#242424" stroke="#242424"></path><path d="M269 170.4L314 213.3L315 170.4Z" fill="#131313" stroke="#131313"></path><path d="M269 170.4L269 213.3L314 213.3Z" fill="#191919" stroke="#191919"></path><path d="M225 256.1L225 300L269 300Z" fill="#131313" stroke="#131313"></path><path d="M719 257.1L675 214.3L674 257.1Z" fill="#0f0f0f" stroke="#0f0f0f"></path><path d="M674 257.1L675 214.3L630 257.1Z" fill="#131313" stroke="#131313"></path><path d="M630 471.4L674 428.6L629 428.6Z" fill="#191919" stroke="#191919"></path><path d="M495 84.7L494 127.6L539 128.6Z" fill="#0b0b0b" stroke="#0b0b0b"></path><path d="M494 127.6L450 84.7L450 128.6Z" fill="#0b0b0b" stroke="#0b0b0b"></path><path d="M405 127.6L360 85.7L359 128.6Z" fill="#0b0b0b" stroke="#0b0b0b"></path><path d="M539 84.7L495 84.7L539 128.6Z" fill="#1e1e1e" stroke="#1e1e1e"></path><path d="M449 514.3L494 557.1L495 514.3Z" fill="#242424" stroke="#242424"></path><path d="M495 514.3L539 557.1L539 514.3Z" fill="#191919" stroke="#191919"></path><path d="M539 514.3L539 557.1L584 514.3Z" fill="#0b0b0b" stroke="#0b0b0b"></path><path d="M449 557.1L449 514.3L405 557.1Z" fill="#000000" stroke="#000000"></path><path d="M405 557.1L449 514.3L405 513.3Z" fill="#000000" stroke="#000000"></path><path d="M450 84.7L404 85.7L405 127.6Z" fill="#0f0f0f" stroke="#0f0f0f"></path><path d="M359 128.6L314 127.6L315 170.4Z" fill="#0f0f0f" stroke="#0f0f0f"></path><path d="M584 127.6L539 84.7L539 128.6Z" fill="#1e1e1e" stroke="#1e1e1e"></path><path d="M359 557.1L405 557.1L360 513.3Z" fill="#191919" stroke="#191919"></path><path d="M360 513.3L405 557.1L405 513.3Z" fill="#050505" stroke="#050505"></path><path d="M494 557.1L539 557.1L495 514.3Z" fill="#131313" stroke="#131313"></path><path d="M584 514.3L630 514.3L585 470.4Z" fill="#1e1e1e" stroke="#1e1e1e"></path><path d="M225 256.1L269 300L270 257.1Z" fill="#1e1e1e" stroke="#1e1e1e"></path><path d="M269 300L225 300L269 341.9Z" fill="#161616" stroke="#161616"></path><path d="M269 341.9L225 385.7L270 385.7Z" fill="#161616" stroke="#161616"></path><path d="M225 300L225 342.9L269 341.9Z" fill="#050505" stroke="#050505"></path><path d="M719 341.9L675 299L674 342.9Z" fill="#131313" stroke="#131313"></path><path d="M675 299L719 257.1L674 257.1Z" fill="#191919" stroke="#191919"></path><path d="M719 341.9L674 342.9L675 384.7Z" fill="#161616" stroke="#161616"></path><path d="M720 384.7L719 341.9L675 384.7Z" fill="#242424" stroke="#242424"></path><path d="M315 84.7L314 127.6L359 128.6Z" fill="#050505" stroke="#050505"></path><path d="M629 170.4L630 127.6L584 127.6Z" fill="#0f0f0f" stroke="#0f0f0f"></path><path d="M584 127.6L585 84.7L539 84.7Z" fill="#050505" stroke="#050505"></path><path d="M675 171.4L630 127.6L629 170.4Z" fill="#161616" stroke="#161616"></path><path d="M270 514.3L314 514.3L314 471.4Z" fill="#191919" stroke="#191919"></path><path d="M314 471.4L314 514.3L360 513.3Z" fill="#242424" stroke="#242424"></path><path d="M269 471.4L314 471.4L270 428.6Z" fill="#1c1c1c" stroke="#1c1c1c"></path><path d="M585 556.1L630 514.3L584 514.3Z" fill="#1e1e1e" stroke="#1e1e1e"></path><path d="M630 471.4L674 470.4L674 428.6Z" fill="#161616" stroke="#161616"></path><path d="M719 427.6L720 384.7L675 384.7Z" fill="#000000" stroke="#000000"></path><path d="M314 127.6L269 170.4L315 170.4Z" fill="#1c1c1c" stroke="#1c1c1c"></path><path d="M269 213.3L225 256.1L270 257.1Z" fill="#1c1c1c" stroke="#1c1c1c"></path><path d="M675 513.3L674 470.4L630 471.4Z" fill="#191919" stroke="#191919"></path><path d="M719 213.3L675 171.4L675 214.3Z" fill="#0b0b0b" stroke="#0b0b0b"></path><path d="M675 214.3L675 171.4L629 213.3Z" fill="#242424" stroke="#242424"></path><path d="M225 471.4L269 471.4L270 428.6Z" fill="#0f0f0f" stroke="#0f0f0f"></path><path d="M224 214.3L225 256.1L269 213.3Z" fill="#1c1c1c" stroke="#1c1c1c"></path><path d="M225 342.9L225 385.7L269 341.9Z" fill="#0f0f0f" stroke="#0f0f0f"></path><path d="M719 300L719 257.1L675 299Z" fill="#0f0f0f" stroke="#0f0f0f"></path><path d="M719 427.6L675 384.7L674 428.6Z" fill="#0f0f0f" stroke="#0f0f0f"></path><path d="M765 341.9L765 299L719 300Z" fill="#1e1e1e" stroke="#1e1e1e"></path><path d="M719 300L764 257.1L719 257.1Z" fill="#0f0f0f" stroke="#0f0f0f"></path><path d="M405 42.9L360 85.7L404 85.7Z" fill="#050505" stroke="#050505"></path><path d="M404 85.7L360 85.7L405 127.6Z" fill="#1e1e1e" stroke="#1e1e1e"></path><path d="M630 127.6L585 84.7L584 127.6Z" fill="#191919" stroke="#191919"></path><path d="M539 557.1L585 556.1L584 514.3Z" fill="#1e1e1e" stroke="#1e1e1e"></path><path d="M314 514.3L359 557.1L360 513.3Z" fill="#242424" stroke="#242424"></path><path d="M315 557.1L359 557.1L314 514.3Z" fill="#050505" stroke="#050505"></path><path d="M224 170.4L224 214.3L269 213.3Z" fill="#131313" stroke="#131313"></path><path d="M180 257.1L180 300L225 300Z" fill="#212121" stroke="#212121"></path><path d="M180 342.9L225 385.7L225 342.9Z" fill="#131313" stroke="#131313"></path><path d="M179 385.7L224 427.6L225 385.7Z" fill="#0f0f0f" stroke="#0f0f0f"></path><path d="M719 257.1L719 213.3L675 214.3Z" fill="#131313" stroke="#131313"></path><path d="M675 171.4L675 127.6L630 127.6Z" fill="#000000" stroke="#000000"></path><path d="M764 257.1L719 213.3L719 257.1Z" fill="#212121" stroke="#212121"></path><path d="M720 470.4L719 427.6L674 470.4Z" fill="#0b0b0b" stroke="#0b0b0b"></path><path d="M674 470.4L719 427.6L674 428.6Z" fill="#000000" stroke="#000000"></path><path d="M225 385.7L224 427.6L270 428.6Z" fill="#212121" stroke="#212121"></path><path d="M180 300L225 342.9L225 300Z" fill="#191919" stroke="#191919"></path><path d="M270 84.7L269 128.6L314 127.6Z" fill="#050505" stroke="#050505"></path><path d="M314 127.6L269 128.6L269 170.4Z" fill="#242424" stroke="#242424"></path><path d="M269 170.4L224 170.4L269 213.3Z" fill="#161616" stroke="#161616"></path><path d="M495 84.7L450 41.9L450 84.7Z" fill="#050505" stroke="#050505"></path><path d="M450 84.7L405 42.9L404 85.7Z" fill="#1e1e1e" stroke="#1e1e1e"></path><path d="M360 85.7L315 84.7L359 128.6Z" fill="#0f0f0f" stroke="#0f0f0f"></path><path d="M495 41.9L450 41.9L495 84.7Z" fill="#191919" stroke="#191919"></path><path d="M495 41.9L495 84.7L539 42.9Z" fill="#212121" stroke="#212121"></path><path d="M539 42.9L495 84.7L539 84.7Z" fill="#191919" stroke="#191919"></path><path d="M225 514.3L270 514.3L269 471.4Z" fill="#131313" stroke="#131313"></path><path d="M269 471.4L270 514.3L314 471.4Z" fill="#1c1c1c" stroke="#1c1c1c"></path><path d="M719 170.4L675 127.6L675 171.4Z" fill="#161616" stroke="#161616"></path><path d="M630 127.6L630 85.7L585 84.7Z" fill="#191919" stroke="#191919"></path><path d="M674 556.1L675 513.3L630 514.3Z" fill="#191919" stroke="#191919"></path><path d="M630 514.3L675 513.3L630 471.4Z" fill="#1e1e1e" stroke="#1e1e1e"></path><path d="M449 557.1L449 600L494 557.1Z" fill="#212121" stroke="#212121"></path><path d="M494 557.1L494 600L539 557.1Z" fill="#161616" stroke="#161616"></path><path d="M539 557.1L584 600L585 556.1Z" fill="#0b0b0b" stroke="#0b0b0b"></path><path d="M405 557.1L449 600L449 557.1Z" fill="#0b0b0b" stroke="#0b0b0b"></path><path d="M404 600L449 600L405 557.1Z" fill="#1c1c1c" stroke="#1c1c1c"></path><path d="M449 600L494 600L494 557.1Z" fill="#131313" stroke="#131313"></path><path d="M585 556.1L630 556.1L630 514.3Z" fill="#0f0f0f" stroke="#0f0f0f"></path><path d="M359 42.9L315 84.7L360 85.7Z" fill="#1c1c1c" stroke="#1c1c1c"></path><path d="M674 84.7L630 85.7L630 127.6Z" fill="#191919" stroke="#191919"></path><path d="M584 41.9L539 42.9L539 84.7Z" fill="#212121" stroke="#212121"></path><path d="M270 514.3L315 557.1L314 514.3Z" fill="#1e1e1e" stroke="#1e1e1e"></path><path d="M359 557.1L404 600L405 557.1Z" fill="#161616" stroke="#161616"></path><path d="M629 600L630 556.1L585 556.1Z" fill="#050505" stroke="#050505"></path><path d="M450 41.9L405 42.9L450 84.7Z" fill="#191919" stroke="#191919"></path><path d="M584 41.9L539 84.7L585 84.7Z" fill="#1c1c1c" stroke="#1c1c1c"></path><path d="M494 600L539 600L539 557.1Z" fill="#0f0f0f" stroke="#0f0f0f"></path><path d="M360 600L404 600L359 557.1Z" fill="#0f0f0f" stroke="#0f0f0f"></path><path d="M224 427.6L225 471.4L270 428.6Z" fill="#191919" stroke="#191919"></path><path d="M270 514.3L269 557.1L315 557.1Z" fill="#131313" stroke="#131313"></path><path d="M225 128.6L224 170.4L269 170.4Z" fill="#191919" stroke="#191919"></path><path d="M225 128.6L269 170.4L269 128.6Z" fill="#0b0b0b" stroke="#0b0b0b"></path><path d="M765 170.4L719 170.4L719 213.3Z" fill="#000000" stroke="#000000"></path><path d="M719 213.3L719 170.4L675 171.4Z" fill="#131313" stroke="#131313"></path><path d="M675 513.3L720 470.4L674 470.4Z" fill="#242424" stroke="#242424"></path><path d="M765 341.9L719 341.9L720 384.7Z" fill="#212121" stroke="#212121"></path><path d="M720 513.3L720 470.4L675 513.3Z" fill="#1e1e1e" stroke="#1e1e1e"></path><path d="M180 257.1L225 256.1L224 214.3Z" fill="#1e1e1e" stroke="#1e1e1e"></path><path d="M180 257.1L225 300L225 256.1Z" fill="#0f0f0f" stroke="#0f0f0f"></path><path d="M224 427.6L180 428.6L225 471.4Z" fill="#1e1e1e" stroke="#1e1e1e"></path><path d="M180 300L180 342.9L225 342.9Z" fill="#191919" stroke="#191919"></path><path d="M765 341.9L720 384.7L764 385.7Z" fill="#1e1e1e" stroke="#1e1e1e"></path><path d="M765 341.9L719 300L719 341.9Z" fill="#191919" stroke="#191919"></path><path d="M764 385.7L720 384.7L719 427.6Z" fill="#1e1e1e" stroke="#1e1e1e"></path><path d="M179 214.3L180 257.1L224 214.3Z" fill="#0f0f0f" stroke="#0f0f0f"></path><path d="M765 299L764 257.1L719 300Z" fill="#0f0f0f" stroke="#0f0f0f"></path><path d="M315 41.9L359 42.9L360 0Z" fill="#242424" stroke="#242424"></path><path d="M405 42.9L359 42.9L360 85.7Z" fill="#1c1c1c" stroke="#1c1c1c"></path><path d="M315 84.7L270 84.7L314 127.6Z" fill="#161616" stroke="#161616"></path><path d="M135 342.9L179 385.7L180 342.9Z" fill="#242424" stroke="#242424"></path><path d="M180 342.9L179 385.7L225 385.7Z" fill="#191919" stroke="#191919"></path><path d="M135 342.9L180 342.9L180 300Z" fill="#191919" stroke="#191919"></path><path d="M765 427.6L764 385.7L719 427.6Z" fill="#212121" stroke="#212121"></path><path d="M630 42.9L584 41.9L585 84.7Z" fill="#050505" stroke="#050505"></path><path d="M495 0L450 0L495 41.9Z" fill="#050505" stroke="#050505"></path><path d="M630 42.9L585 84.7L630 85.7Z" fill="#161616" stroke="#161616"></path><path d="M315 600L360 600L359 557.1Z" fill="#0f0f0f" stroke="#0f0f0f"></path><path d="M315 600L359 557.1L315 557.1Z" fill="#0f0f0f" stroke="#0f0f0f"></path><path d="M539 600L584 600L539 557.1Z" fill="#1c1c1c" stroke="#1c1c1c"></path><path d="M630 556.1L674 556.1L630 514.3Z" fill="#000000" stroke="#000000"></path><path d="M315 41.9L270 84.7L315 84.7Z" fill="#0b0b0b" stroke="#0b0b0b"></path><path d="M720 85.7L674 84.7L675 127.6Z" fill="#1c1c1c" stroke="#1c1c1c"></path><path d="M675 127.6L674 84.7L630 127.6Z" fill="#0b0b0b" stroke="#0b0b0b"></path><path d="M674 600L674 556.1L630 556.1Z" fill="#1c1c1c" stroke="#1c1c1c"></path><path d="M179 385.7L180 428.6L224 427.6Z" fill="#050505" stroke="#050505"></path><path d="M225 514.3L269 557.1L270 514.3Z" fill="#1c1c1c" stroke="#1c1c1c"></path><path d="M179 170.4L224 214.3L224 170.4Z" fill="#161616" stroke="#161616"></path><path d="M179 170.4L179 214.3L224 214.3Z" fill="#212121" stroke="#212121"></path><path d="M180 257.1L135 299L180 300Z" fill="#212121" stroke="#212121"></path><path d="M225 514.3L269 471.4L225 471.4Z" fill="#191919" stroke="#191919"></path><path d="M225 84.7L225 128.6L269 128.6Z" fill="#1c1c1c" stroke="#1c1c1c"></path><path d="M764 257.1L765 213.3L719 213.3Z" fill="#1c1c1c" stroke="#1c1c1c"></path><path d="M719 170.4L719 127.6L675 127.6Z" fill="#161616" stroke="#161616"></path><path d="M809 257.1L765 213.3L764 257.1Z" fill="#000000" stroke="#000000"></path><path d="M765 470.4L765 427.6L720 470.4Z" fill="#131313" stroke="#131313"></path><path d="M720 470.4L765 427.6L719 427.6Z" fill="#1e1e1e" stroke="#1e1e1e"></path><path d="M810 342.9L810 300L765 341.9Z" fill="#050505" stroke="#050505"></path><path d="M179 514.3L225 514.3L225 471.4Z" fill="#0f0f0f" stroke="#0f0f0f"></path><path d="M764 127.6L719 127.6L719 170.4Z" fill="#1c1c1c" stroke="#1c1c1c"></path><path d="M719 556.1L720 513.3L675 513.3Z" fill="#131313" stroke="#131313"></path><path d="M359 42.9L315 41.9L315 84.7Z" fill="#131313" stroke="#131313"></path><path d="M404 0L359 42.9L405 42.9Z" fill="#1e1e1e" stroke="#1e1e1e"></path><path d="M674 84.7L630 42.9L630 85.7Z" fill="#1e1e1e" stroke="#1e1e1e"></path><path d="M269 557.1L315 600L315 557.1Z" fill="#0b0b0b" stroke="#0b0b0b"></path><path d="M584 600L629 600L585 556.1Z" fill="#0f0f0f" stroke="#0f0f0f"></path><path d="M674 556.1L719 556.1L675 513.3Z" fill="#0f0f0f" stroke="#0f0f0f"></path><path d="M495 41.9L450 0L450 41.9Z" fill="#131313" stroke="#131313"></path><path d="M450 41.9L450 0L405 42.9Z" fill="#212121" stroke="#212121"></path><path d="M495 0L495 41.9L539 0Z" fill="#050505" stroke="#050505"></path><path d="M495 41.9L539 42.9L539 0Z" fill="#0f0f0f" stroke="#0f0f0f"></path><path d="M539 0L539 42.9L584 41.9Z" fill="#242424" stroke="#242424"></path><path d="M450 0L404 0L405 42.9Z" fill="#131313" stroke="#131313"></path><path d="M584 0L539 0L584 41.9Z" fill="#212121" stroke="#212121"></path><path d="M179 128.6L224 170.4L225 128.6Z" fill="#0f0f0f" stroke="#0f0f0f"></path><path d="M179 128.6L179 170.4L224 170.4Z" fill="#0b0b0b" stroke="#0b0b0b"></path><path d="M225 84.7L269 128.6L270 84.7Z" fill="#0f0f0f" stroke="#0f0f0f"></path><path d="M135 428.6L179 470.4L180 428.6Z" fill="#242424" stroke="#242424"></path><path d="M180 428.6L179 470.4L225 471.4Z" fill="#161616" stroke="#161616"></path><path d="M225 514.3L224 557.1L269 557.1Z" fill="#242424" stroke="#242424"></path><path d="M765 213.3L765 170.4L719 213.3Z" fill="#191919" stroke="#191919"></path><path d="M719 127.6L720 85.7L675 127.6Z" fill="#0b0b0b" stroke="#0b0b0b"></path><path d="M674 84.7L675 42.9L630 42.9Z" fill="#131313" stroke="#131313"></path><path d="M764 513.3L720 470.4L720 513.3Z" fill="#161616" stroke="#161616"></path><path d="M764 513.3L765 470.4L720 470.4Z" fill="#1e1e1e" stroke="#1e1e1e"></path><path d="M135 257.1L180 257.1L179 214.3Z" fill="#0b0b0b" stroke="#0b0b0b"></path><path d="M135 257.1L135 299L180 257.1Z" fill="#1c1c1c" stroke="#1c1c1c"></path><path d="M179 385.7L135 428.6L180 428.6Z" fill="#1c1c1c" stroke="#1c1c1c"></path><path d="M135 299L135 342.9L180 300Z" fill="#131313" stroke="#131313"></path><path d="M765 341.9L810 300L765 299Z" fill="#1c1c1c" stroke="#1c1c1c"></path><path d="M765 299L809 257.1L764 257.1Z" fill="#1e1e1e" stroke="#1e1e1e"></path><path d="M765 213.3L810 213.3L765 170.4Z" fill="#0f0f0f" stroke="#0f0f0f"></path><path d="M810 342.9L765 341.9L809 384.7Z" fill="#242424" stroke="#242424"></path><path d="M765 341.9L764 385.7L809 384.7Z" fill="#191919" stroke="#191919"></path><path d="M809 384.7L764 385.7L765 427.6Z" fill="#131313" stroke="#131313"></path><path d="M404 0L360 0L359 42.9Z" fill="#000000" stroke="#000000"></path><path d="M630 0L584 0L584 41.9Z" fill="#131313" stroke="#131313"></path><path d="M269 42.9L270 84.7L315 41.9Z" fill="#050505" stroke="#050505"></path><path d="M269 42.9L225 84.7L270 84.7Z" fill="#0f0f0f" stroke="#0f0f0f"></path><path d="M674 600L719 556.1L674 556.1Z" fill="#212121" stroke="#212121"></path><path d="M764 127.6L720 85.7L719 127.6Z" fill="#0f0f0f" stroke="#0f0f0f"></path><path d="M630 42.9L630 0L584 41.9Z" fill="#191919" stroke="#191919"></path><path d="M135 214.3L135 257.1L179 214.3Z" fill="#1e1e1e" stroke="#1e1e1e"></path><path d="M180 556.1L224 557.1L225 514.3Z" fill="#131313" stroke="#131313"></path><path d="M269 557.1L269 600L315 600Z" fill="#1e1e1e" stroke="#1e1e1e"></path><path d="M135 342.9L135 385.7L179 385.7Z" fill="#0f0f0f" stroke="#0f0f0f"></path><path d="M179 470.4L179 514.3L225 471.4Z" fill="#161616" stroke="#161616"></path><path d="M810 300L809 257.1L765 299Z" fill="#131313" stroke="#131313"></path><path d="M270 0L269 42.9L315 41.9Z" fill="#1e1e1e" stroke="#1e1e1e"></path><path d="M810 427.6L809 384.7L765 427.6Z" fill="#212121" stroke="#212121"></path><path d="M720 85.7L675 42.9L674 84.7Z" fill="#1c1c1c" stroke="#1c1c1c"></path><path d="M225 600L269 600L269 557.1Z" fill="#212121" stroke="#212121"></path><path d="M629 600L674 600L630 556.1Z" fill="#050505" stroke="#050505"></path><path d="M180 85.7L179 128.6L225 128.6Z" fill="#191919" stroke="#191919"></path><path d="M179 170.4L135 214.3L179 214.3Z" fill="#0b0b0b" stroke="#0b0b0b"></path><path d="M810 128.6L764 127.6L765 170.4Z" fill="#242424" stroke="#242424"></path><path d="M765 170.4L764 127.6L719 170.4Z" fill="#131313" stroke="#131313"></path><path d="M720 85.7L720 42.9L675 42.9Z" fill="#191919" stroke="#191919"></path><path d="M719 556.1L764 513.3L720 513.3Z" fill="#131313" stroke="#131313"></path><path d="M809 470.4L810 427.6L765 427.6Z" fill="#1c1c1c" stroke="#1c1c1c"></path><path d="M765 556.1L764 513.3L719 556.1Z" fill="#191919" stroke="#191919"></path><path d="M135 470.4L179 514.3L179 470.4Z" fill="#212121" stroke="#212121"></path><path d="M134 171.4L135 214.3L179 170.4Z" fill="#1e1e1e" stroke="#1e1e1e"></path><path d="M135 385.7L135 428.6L179 385.7Z" fill="#161616" stroke="#161616"></path><path d="M809 257.1L810 213.3L765 213.3Z" fill="#050505" stroke="#050505"></path><path d="M854 213.3L810 213.3L809 257.1Z" fill="#212121" stroke="#212121"></path><path d="M809 470.4L765 427.6L765 470.4Z" fill="#131313" stroke="#131313"></path><path d="M855 342.9L810 300L810 342.9Z" fill="#212121" stroke="#212121"></path><path d="M360 0L314 0L315 41.9Z" fill="#1c1c1c" stroke="#1c1c1c"></path><path d="M269 42.9L224 41.9L225 84.7Z" fill="#242424" stroke="#242424"></path><path d="M674 0L630 0L630 42.9Z" fill="#131313" stroke="#131313"></path><path d="M674 0L630 42.9L675 42.9Z" fill="#242424" stroke="#242424"></path><path d="M135 428.6L135 470.4L179 470.4Z" fill="#131313" stroke="#131313"></path><path d="M135 128.6L179 170.4L179 128.6Z" fill="#242424" stroke="#242424"></path><path d="M135 128.6L134 171.4L179 170.4Z" fill="#1e1e1e" stroke="#1e1e1e"></path><path d="M89 256.1L89 299L135 257.1Z" fill="#191919" stroke="#191919"></path><path d="M135 257.1L89 299L135 299Z" fill="#1e1e1e" stroke="#1e1e1e"></path><path d="M135 299L89 342.9L135 342.9Z" fill="#212121" stroke="#212121"></path><path d="M135 342.9L89 384.7L135 385.7Z" fill="#212121" stroke="#212121"></path><path d="M135 385.7L90 428.6L135 428.6Z" fill="#000000" stroke="#000000"></path><path d="M135 428.6L90 428.6L135 470.4Z" fill="#161616" stroke="#161616"></path><path d="M809 514.3L765 470.4L764 513.3Z" fill="#000000" stroke="#000000"></path><path d="M809 514.3L809 470.4L765 470.4Z" fill="#1c1c1c" stroke="#1c1c1c"></path><path d="M810 213.3L810 170.4L765 170.4Z" fill="#242424" stroke="#242424"></path><path d="M764 85.7L720 42.9L720 85.7Z" fill="#0b0b0b" stroke="#0b0b0b"></path><path d="M764 85.7L720 85.7L764 127.6Z" fill="#0f0f0f" stroke="#0f0f0f"></path><path d="M225 0L224 41.9L269 42.9Z" fill="#0b0b0b" stroke="#0b0b0b"></path><path d="M225 84.7L180 85.7L225 128.6Z" fill="#161616" stroke="#161616"></path><path d="M180 600L225 600L224 557.1Z" fill="#0b0b0b" stroke="#0b0b0b"></path><path d="M224 557.1L225 600L269 557.1Z" fill="#131313" stroke="#131313"></path><path d="M180 556.1L225 514.3L179 514.3Z" fill="#161616" stroke="#161616"></path><path d="M674 600L719 600L719 556.1Z" fill="#161616" stroke="#161616"></path><path d="M180 42.9L180 85.7L225 84.7Z" fill="#1c1c1c" stroke="#1c1c1c"></path><path d="M135 556.1L180 556.1L179 514.3Z" fill="#0b0b0b" stroke="#0b0b0b"></path><path d="M809 85.7L764 85.7L764 127.6Z" fill="#0b0b0b" stroke="#0b0b0b"></path><path d="M719 600L765 556.1L719 556.1Z" fill="#000000" stroke="#000000"></path><path d="M314 0L270 0L315 41.9Z" fill="#1c1c1c" stroke="#1c1c1c"></path><path d="M719 0L674 0L675 42.9Z" fill="#0f0f0f" stroke="#0f0f0f"></path><path d="M89 256.1L135 257.1L90 214.3Z" fill="#191919" stroke="#191919"></path><path d="M89 299L89 342.9L135 299Z" fill="#161616" stroke="#161616"></path><path d="M855 342.9L855 299L810 300Z" fill="#191919" stroke="#191919"></path><path d="M810 300L855 257.1L809 257.1Z" fill="#161616" stroke="#161616"></path><path d="M810 213.3L854 213.3L810 170.4Z" fill="#191919" stroke="#191919"></path><path d="M855 342.9L810 342.9L855 385.7Z" fill="#212121" stroke="#212121"></path><path d="M810 342.9L809 384.7L855 385.7Z" fill="#000000" stroke="#000000"></path><path d="M855 385.7L809 384.7L810 427.6Z" fill="#161616" stroke="#161616"></path><path d="M135 85.7L135 128.6L179 128.6Z" fill="#050505" stroke="#050505"></path><path d="M90 214.3L135 257.1L135 214.3Z" fill="#1c1c1c" stroke="#1c1c1c"></path><path d="M135 85.7L179 128.6L180 85.7Z" fill="#1e1e1e" stroke="#1e1e1e"></path><path d="M90 214.3L135 214.3L134 171.4Z" fill="#050505" stroke="#050505"></path><path d="M89 342.9L89 384.7L135 342.9Z" fill="#0f0f0f" stroke="#0f0f0f"></path><path d="M135 470.4L134 513.3L179 514.3Z" fill="#212121" stroke="#212121"></path><path d="M855 299L855 257.1L810 300Z" fill="#242424" stroke="#242424"></path><path d="M90 470.4L134 513.3L135 470.4Z" fill="#050505" stroke="#050505"></path><path d="M180 556.1L180 600L224 557.1Z" fill="#161616" stroke="#161616"></path><path d="M854 428.6L855 385.7L810 427.6Z" fill="#1c1c1c" stroke="#1c1c1c"></path><path d="M854 428.6L810 427.6L809 470.4Z" fill="#0b0b0b" stroke="#0b0b0b"></path><path d="M854 128.6L810 128.6L810 170.4Z" fill="#1e1e1e" stroke="#1e1e1e"></path><path d="M810 170.4L810 128.6L765 170.4Z" fill="#212121" stroke="#212121"></path><path d="M764 85.7L765 41.9L720 42.9Z" fill="#0b0b0b" stroke="#0b0b0b"></path><path d="M809 556.1L809 514.3L765 556.1Z" fill="#131313" stroke="#131313"></path><path d="M765 556.1L809 514.3L764 513.3Z" fill="#131313" stroke="#131313"></path><path d="M90 171.4L90 214.3L134 171.4Z" fill="#050505" stroke="#050505"></path><path d="M89 384.7L90 428.6L135 385.7Z" fill="#050505" stroke="#050505"></path><path d="M855 257.1L854 213.3L809 257.1Z" fill="#000000" stroke="#000000"></path><path d="M854 471.4L854 428.6L809 470.4Z" fill="#191919" stroke="#191919"></path><path d="M180 0L180 42.9L224 41.9Z" fill="#191919" stroke="#191919"></path><path d="M224 41.9L180 42.9L225 84.7Z" fill="#050505" stroke="#050505"></path><path d="M135 556.1L180 600L180 556.1Z" fill="#0f0f0f" stroke="#0f0f0f"></path><path d="M270 0L225 0L269 42.9Z" fill="#191919" stroke="#191919"></path><path d="M809 85.7L765 41.9L764 85.7Z" fill="#191919" stroke="#191919"></path><path d="M720 42.9L719 0L675 42.9Z" fill="#1c1c1c" stroke="#1c1c1c"></path><path d="M809 85.7L764 127.6L810 128.6Z" fill="#050505" stroke="#050505"></path><path d="M764 0L719 0L720 42.9Z" fill="#1c1c1c" stroke="#1c1c1c"></path><path d="M719 600L765 600L765 556.1Z" fill="#0f0f0f" stroke="#0f0f0f"></path><path d="M809 514.3L854 471.4L809 470.4Z" fill="#050505" stroke="#050505"></path><path d="M90 128.6L134 171.4L135 128.6Z" fill="#1e1e1e" stroke="#1e1e1e"></path><path d="M90 128.6L90 171.4L134 171.4Z" fill="#161616" stroke="#161616"></path><path d="M45 257.1L89 299L89 256.1Z" fill="#131313" stroke="#131313"></path><path d="M90 428.6L90 470.4L135 470.4Z" fill="#161616" stroke="#161616"></path><path d="M134 513.3L135 556.1L179 514.3Z" fill="#161616" stroke="#161616"></path><path d="M45 427.6L90 470.4L90 428.6Z" fill="#161616" stroke="#161616"></path><path d="M180 42.9L135 85.7L180 85.7Z" fill="#0b0b0b" stroke="#0b0b0b"></path><path d="M90 514.3L135 556.1L134 513.3Z" fill="#212121" stroke="#212121"></path><path d="M854 85.7L809 85.7L810 128.6Z" fill="#212121" stroke="#212121"></path><path d="M855 514.3L854 471.4L809 514.3Z" fill="#191919" stroke="#191919"></path><path d="M900 341.9L855 342.9L900 384.7Z" fill="#050505" stroke="#050505"></path><path d="M854 213.3L855 171.4L810 170.4Z" fill="#161616" stroke="#161616"></path><path d="M900 213.3L855 171.4L854 213.3Z" fill="#191919" stroke="#191919"></path><path d="M765 600L809 556.1L765 556.1Z" fill="#0b0b0b" stroke="#0b0b0b"></path><path d="M135 85.7L90 128.6L135 128.6Z" fill="#1c1c1c" stroke="#1c1c1c"></path><path d="M45 257.1L89 256.1L44 214.3Z" fill="#242424" stroke="#242424"></path><path d="M855 171.4L854 128.6L810 170.4Z" fill="#1e1e1e" stroke="#1e1e1e"></path><path d="M809 0L764 0L765 41.9Z" fill="#050505" stroke="#050505"></path><path d="M44 471.4L90 514.3L90 470.4Z" fill="#1e1e1e" stroke="#1e1e1e"></path><path d="M90 470.4L90 514.3L134 513.3Z" fill="#242424" stroke="#242424"></path><path d="M135 556.1L135 600L180 600Z" fill="#0f0f0f" stroke="#0f0f0f"></path><path d="M89 256.1L90 214.3L44 214.3Z" fill="#1c1c1c" stroke="#1c1c1c"></path><path d="M45 257.1L44 299L89 299Z" fill="#131313" stroke="#131313"></path><path d="M89 299L44 299L89 342.9Z" fill="#0b0b0b" stroke="#0b0b0b"></path><path d="M89 342.9L45 384.7L89 384.7Z" fill="#000000" stroke="#000000"></path><path d="M89 384.7L45 427.6L90 428.6Z" fill="#0b0b0b" stroke="#0b0b0b"></path><path d="M44 299L44 342.9L89 342.9Z" fill="#161616" stroke="#161616"></path><path d="M855 299L900 299L855 257.1Z" fill="#050505" stroke="#050505"></path><path d="M855 257.1L900 213.3L854 213.3Z" fill="#242424" stroke="#242424"></path><path d="M855 171.4L900 127.6L854 128.6Z" fill="#242424" stroke="#242424"></path><path d="M900 341.9L900 299L855 299Z" fill="#161616" stroke="#161616"></path><path d="M900 341.9L855 299L855 342.9Z" fill="#161616" stroke="#161616"></path><path d="M855 342.9L855 385.7L900 384.7Z" fill="#131313" stroke="#131313"></path><path d="M900 384.7L855 385.7L900 427.6Z" fill="#242424" stroke="#242424"></path><path d="M854 557.1L855 514.3L809 514.3Z" fill="#000000" stroke="#000000"></path><path d="M900 427.6L855 385.7L854 428.6Z" fill="#1e1e1e" stroke="#1e1e1e"></path><path d="M854 557.1L809 514.3L809 556.1Z" fill="#191919" stroke="#191919"></path><path d="M44 214.3L90 214.3L45 170.4Z" fill="#0b0b0b" stroke="#0b0b0b"></path><path d="M44 342.9L45 384.7L89 342.9Z" fill="#242424" stroke="#242424"></path><path d="M900 299L900 257.1L855 257.1Z" fill="#000000" stroke="#000000"></path><path d="M225 0L180 0L224 41.9Z" fill="#0b0b0b" stroke="#0b0b0b"></path><path d="M180 42.9L135 41.9L135 85.7Z" fill="#0f0f0f" stroke="#0f0f0f"></path><path d="M135 85.7L90 85.7L90 128.6Z" fill="#000000" stroke="#000000"></path><path d="M900 427.6L854 428.6L900 470.4Z" fill="#212121" stroke="#212121"></path><path d="M810 41.9L765 41.9L809 85.7Z" fill="#131313" stroke="#131313"></path><path d="M765 41.9L764 0L720 42.9Z" fill="#191919" stroke="#191919"></path><path d="M180 0L135 41.9L180 42.9Z" fill="#1e1e1e" stroke="#1e1e1e"></path><path d="M90 557.1L135 600L135 556.1Z" fill="#242424" stroke="#242424"></path><path d="M854 85.7L810 41.9L809 85.7Z" fill="#242424" stroke="#242424"></path><path d="M765 600L810 600L809 556.1Z" fill="#000000" stroke="#000000"></path><path d="M0 384.7L45 427.6L45 384.7Z" fill="#212121" stroke="#212121"></path><path d="M45 384.7L45 427.6L89 384.7Z" fill="#0f0f0f" stroke="#0f0f0f"></path><path d="M45 170.4L90 214.3L90 171.4Z" fill="#242424" stroke="#242424"></path><path d="M0 257.1L0 300L44 299Z" fill="#191919" stroke="#191919"></path><path d="M45 170.4L90 171.4L90 128.6Z" fill="#0f0f0f" stroke="#0f0f0f"></path><path d="M900 257.1L900 213.3L855 257.1Z" fill="#050505" stroke="#050505"></path><path d="M854 128.6L854 85.7L810 128.6Z" fill="#191919" stroke="#191919"></path><path d="M900 470.4L854 428.6L854 471.4Z" fill="#000000" stroke="#000000"></path><path d="M135 41.9L90 85.7L135 85.7Z" fill="#161616" stroke="#161616"></path><path d="M900 127.6L854 85.7L854 128.6Z" fill="#1c1c1c" stroke="#1c1c1c"></path><path d="M45 556.1L90 557.1L90 514.3Z" fill="#131313" stroke="#131313"></path><path d="M90 514.3L90 557.1L135 556.1Z" fill="#191919" stroke="#191919"></path><path d="M810 600L854 557.1L809 556.1Z" fill="#0f0f0f" stroke="#0f0f0f"></path><path d="M855 514.3L900 470.4L854 471.4Z" fill="#191919" stroke="#191919"></path><path d="M44 128.6L45 170.4L90 128.6Z" fill="#212121" stroke="#212121"></path><path d="M45 427.6L44 471.4L90 470.4Z" fill="#0f0f0f" stroke="#0f0f0f"></path><path d="M0 428.6L44 471.4L45 427.6Z" fill="#242424" stroke="#242424"></path><path d="M900 213.3L900 171.4L855 171.4Z" fill="#000000" stroke="#000000"></path><path d="M900 514.3L900 470.4L855 514.3Z" fill="#050505" stroke="#050505"></path><path d="M854 0L809 0L810 41.9Z" fill="#1c1c1c" stroke="#1c1c1c"></path><path d="M810 41.9L809 0L765 41.9Z" fill="#212121" stroke="#212121"></path><path d="M855 42.9L810 41.9L854 85.7Z" fill="#1c1c1c" stroke="#1c1c1c"></path><path d="M180 0L134 0L135 41.9Z" fill="#000000" stroke="#000000"></path><path d="M135 41.9L90 41.9L90 85.7Z" fill="#242424" stroke="#242424"></path><path d="M45 84.7L44 128.6L90 128.6Z" fill="#1e1e1e" stroke="#1e1e1e"></path><path d="M45 84.7L90 128.6L90 85.7Z" fill="#050505" stroke="#050505"></path><path d="M0 257.1L45 257.1L44 214.3Z" fill="#212121" stroke="#212121"></path><path d="M44 471.4L44 513.3L90 514.3Z" fill="#161616" stroke="#161616"></path><path d="M900 171.4L900 127.6L855 171.4Z" fill="#191919" stroke="#191919"></path><path d="M900 556.1L855 514.3L854 557.1Z" fill="#212121" stroke="#212121"></path><path d="M900 556.1L900 514.3L855 514.3Z" fill="#191919" stroke="#191919"></path><path d="M0 257.1L44 214.3L0 213.3Z" fill="#1c1c1c" stroke="#1c1c1c"></path><path d="M0 257.1L44 299L45 257.1Z" fill="#000000" stroke="#000000"></path><path d="M44 299L0 341.9L44 342.9Z" fill="#050505" stroke="#050505"></path><path d="M44 342.9L0 384.7L45 384.7Z" fill="#1e1e1e" stroke="#1e1e1e"></path><path d="M44 471.4L0 471.4L44 513.3Z" fill="#131313" stroke="#131313"></path><path d="M0 300L0 341.9L44 299Z" fill="#242424" stroke="#242424"></path><path d="M134 0L90 41.9L135 41.9Z" fill="#1e1e1e" stroke="#1e1e1e"></path><path d="M45 556.1L90 600L90 557.1Z" fill="#0f0f0f" stroke="#0f0f0f"></path><path d="M90 557.1L90 600L135 600Z" fill="#1e1e1e" stroke="#1e1e1e"></path><path d="M900 85.7L855 42.9L854 85.7Z" fill="#242424" stroke="#242424"></path><path d="M810 600L854 600L854 557.1Z" fill="#161616" stroke="#161616"></path><path d="M0 213.3L44 214.3L0 171.4Z" fill="#1e1e1e" stroke="#1e1e1e"></path><path d="M0 341.9L0 384.7L44 342.9Z" fill="#050505" stroke="#050505"></path><path d="M0 171.4L44 214.3L45 170.4Z" fill="#212121" stroke="#212121"></path><path d="M0 384.7L0 428.6L45 427.6Z" fill="#000000" stroke="#000000"></path><path d="M90 41.9L45 84.7L90 85.7Z" fill="#131313" stroke="#131313"></path><path d="M44 128.6L0 171.4L45 170.4Z" fill="#161616" stroke="#161616"></path><path d="M0 556.1L45 556.1L44 513.3Z" fill="#1e1e1e" stroke="#1e1e1e"></path><path d="M44 513.3L45 556.1L90 514.3Z" fill="#1c1c1c" stroke="#1c1c1c"></path><path d="M900 127.6L900 85.7L854 85.7Z" fill="#191919" stroke="#191919"></path><path d="M900 600L900 556.1L854 557.1Z" fill="#050505" stroke="#050505"></path><path d="M0 128.6L0 171.4L44 128.6Z" fill="#1e1e1e" stroke="#1e1e1e"></path><path d="M0 428.6L0 471.4L44 471.4Z" fill="#1c1c1c" stroke="#1c1c1c"></path><path d="M134 0L89 0L90 41.9Z" fill="#212121" stroke="#212121"></path><path d="M90 41.9L45 42.9L45 84.7Z" fill="#1c1c1c" stroke="#1c1c1c"></path><path d="M855 42.9L854 0L810 41.9Z" fill="#191919" stroke="#191919"></path><path d="M900 0L854 0L855 42.9Z" fill="#0b0b0b" stroke="#0b0b0b"></path><path d="M89 0L45 42.9L90 41.9Z" fill="#0f0f0f" stroke="#0f0f0f"></path><path d="M0 85.7L0 128.6L44 128.6Z" fill="#242424" stroke="#242424"></path><path d="M0 85.7L44 128.6L45 84.7Z" fill="#050505" stroke="#050505"></path><path d="M0 471.4L0 513.3L44 513.3Z" fill="#050505" stroke="#050505"></path><path d="M45 556.1L44 600L90 600Z" fill="#212121" stroke="#212121"></path><path d="M0 556.1L44 600L45 556.1Z" fill="#000000" stroke="#000000"></path><path d="M900 85.7L900 41.9L855 42.9Z" fill="#1e1e1e" stroke="#1e1e1e"></path><path d="M854 600L900 600L854 557.1Z" fill="#1e1e1e" stroke="#1e1e1e"></path><path d="M0 41.9L0 85.7L45 42.9Z" fill="#191919" stroke="#191919"></path><path d="M45 42.9L0 85.7L45 84.7Z" fill="#1e1e1e" stroke="#1e1e1e"></path><path d="M0 513.3L0 556.1L44 513.3Z" fill="#212121" stroke="#212121"></path><path d="M89 0L45 0L45 42.9Z" fill="#0f0f0f" stroke="#0f0f0f"></path><path d="M900 41.9L900 0L855 42.9Z" fill="#000000" stroke="#000000"></path><path d="M45 0L0 41.9L45 42.9Z" fill="#212121" stroke="#212121"></path><path d="M0 556.1L0 600L44 600Z" fill="#131313" stroke="#131313"></path><path d="M45 0L0 0L0 41.9Z" fill="#131313" stroke="#131313"></path></g></svg>